<?xml version="1.0" encoding="utf-8"?>
<!-- Generator: Adobe Illustrator 16.0.0, SVG Export Plug-In . SVG Version: 6.00 Build 0)  -->
<!DOCTYPE svg PUBLIC "-//W3C//DTD SVG 1.1//EN" "http://www.w3.org/Graphics/SVG/1.1/DTD/svg11.dtd">
<svg version="1.1" id="Layer_1" xmlns="http://www.w3.org/2000/svg" xmlns:xlink="http://www.w3.org/1999/xlink" x="0px" y="0px"
	 width="50.969px" height="45.957px" viewBox="0 0 50.969 45.957" enable-background="new 0 0 50.969 45.957" xml:space="preserve">
<g>
	<path fill="#F0DB4F" d="M11.678,1.895h27.613v27.612H11.678V1.895z"/>
	<path fill="#323330" d="M37.033,22.923c-0.203-1.261-1.023-2.319-3.458-3.307c-0.845-0.389-1.786-0.664-2.067-1.307
		c-0.1-0.372-0.112-0.582-0.049-0.808c0.181-0.733,1.055-0.96,1.748-0.75c0.444,0.148,0.867,0.493,1.121,1.042
		c1.191-0.771,1.189-0.767,2.021-1.299c-0.303-0.471-0.467-0.689-0.665-0.892c-0.718-0.801-1.693-1.212-3.255-1.182l-0.813,0.106
		c-0.78,0.197-1.522,0.605-1.958,1.153c-1.307,1.483-0.935,4.081,0.656,5.148c1.566,1.177,3.868,1.444,4.163,2.545
		c0.286,1.346-0.989,1.781-2.259,1.627c-0.935-0.196-1.453-0.672-2.016-1.534c-1.033,0.598-1.033,0.598-2.099,1.209
		c0.253,0.553,0.519,0.801,0.94,1.277c2,2.028,7.006,1.93,7.901-1.142C36.984,24.708,37.226,24.005,37.033,22.923z M26.69,14.585
		h-2.582l-0.011,6.678c0,1.42,0.072,2.722-0.157,3.121c-0.378,0.785-1.358,0.687-1.804,0.535c-0.455-0.225-0.688-0.541-0.954-0.99
		c-0.073-0.127-0.128-0.229-0.146-0.234l-2.102,1.285c0.351,0.717,0.864,1.34,1.522,1.742c0.984,0.591,2.307,0.771,3.69,0.455
		c0.899-0.262,1.677-0.805,2.083-1.633c0.589-1.084,0.464-2.396,0.458-3.85C26.705,19.327,26.69,16.962,26.69,14.585z"/>
</g>
<rect x="-3.181" y="34.748" fill="none" width="57.33" height="12.215"/>
<text transform="matrix(1 0 0 1 1.499 42.689)" fill="#323330" font-family="'NeutraText-Bold'" font-size="11">Javascript</text>
</svg>
