<?xml version="1.0" encoding="utf-8"?>
<!-- Generator: Adobe Illustrator 16.0.0, SVG Export Plug-In . SVG Version: 6.00 Build 0)  -->
<!DOCTYPE svg PUBLIC "-//W3C//DTD SVG 1.1//EN" "http://www.w3.org/Graphics/SVG/1.1/DTD/svg11.dtd">
<svg version="1.1" id="Layer_1" xmlns="http://www.w3.org/2000/svg" xmlns:xlink="http://www.w3.org/1999/xlink" x="0px" y="0px"
	 width="1920px" height="1080px" viewBox="0 0 1920 1080" enable-background="new 0 0 1920 1080" xml:space="preserve">
<rect x="1498.473" y="-303.663" transform="matrix(0.7071 0.7071 -0.7071 0.7071 1453.6738 -868.062)" opacity="0.8" fill="#F9D53D" width="552.409" height="3248.734"/>
<rect x="1201.09" y="-625.961" transform="matrix(0.7071 0.7071 -0.7071 0.7071 1136.0559 -687.8809)" opacity="0.8" fill="#FABF28" width="394.564" height="3306.717"/>
<rect x="919.369" y="-905.802" transform="matrix(0.7071 0.7071 -0.7071 0.7071 855.1816 -572.5928)" opacity="0.8" fill="#FCAF18" width="398.805" height="3303.603"/>
<rect x="567.287" y="-1186.711" transform="matrix(0.7071 0.7071 -0.7071 0.7071 562.7076 -425.2044)" opacity="0.8" fill="#FABF28" width="454.67" height="3306.717"/>
<rect x="294.367" y="-1487.803" transform="matrix(0.7071 0.7071 -0.7071 0.7071 260.5864 -301.1152)" opacity="0.8" fill="#F9D53D" width="398.808" height="3303.603"/>
<rect x="39.679" y="-1794.553" transform="matrix(0.7071 0.7071 -0.7071 0.7071 -31.2256 -210.1176)" opacity="0.8" fill="#F9E343" width="396.684" height="3303.602"/>
</svg>
