<?xml version="1.0" encoding="utf-8"?>
<!-- Generator: Adobe Illustrator 16.0.0, SVG Export Plug-In . SVG Version: 6.00 Build 0)  -->
<!DOCTYPE svg PUBLIC "-//W3C//DTD SVG 1.1//EN" "http://www.w3.org/Graphics/SVG/1.1/DTD/svg11.dtd">
<svg version="1.1" id="Layer_1" xmlns="http://www.w3.org/2000/svg" xmlns:xlink="http://www.w3.org/1999/xlink" x="0px" y="0px"
	 width="75.409px" height="20px" viewBox="0 0 75.409 20" enable-background="new 0 0 75.409 20" xml:space="preserve">
<path fill="none" d="M10,0h20v20H10V0z"/>
<path fill="#764ABC" d="M16.482,13.768c-1.406,2.875-3.868,4.809-7.126,5.445c-0.5,0.122-1.013,0.182-1.527,0.178
	c-1.875,0-3.594-0.781-4.428-2.061c-1.12-1.705-1.501-5.319,2.192-7.993c0.075,0.408,0.228,0.967,0.33,1.298
	c-0.725,0.539-1.318,1.235-1.736,2.036c-0.688,1.35-0.611,2.698,0.203,3.945c0.563,0.841,1.453,1.352,2.599,1.508
	c1.43,0.182,2.881-0.092,4.148-0.781c1.986-1.044,3.31-2.291,4.175-3.995c-0.244-0.253-0.39-0.587-0.408-0.938
	c-0.027-0.786,0.587-1.444,1.372-1.474h0.054c0.789-0.004,1.433,0.633,1.437,1.422c0.003,0.735-0.55,1.354-1.28,1.43L16.482,13.768z
	 M20.963,10.611c1.907,2.162,1.959,4.707,1.222,6.184c-0.688,1.349-2.5,2.699-4.938,2.699c-1.138-0.023-2.257-0.293-3.281-0.789
	c0.357-0.255,0.865-0.663,1.146-0.918c0.789,0.342,1.639,0.523,2.5,0.535c1.578,0,2.773-0.738,3.485-2.086
	c0.458-0.891,0.484-1.935,0.052-3.004c-0.531-1.344-1.477-2.485-2.698-3.257c-1.604-1.081-3.494-1.657-5.428-1.655h-0.458
	c-0.218,0.503-0.702,0.839-1.25,0.866h-0.048c-0.788-0.01-1.418-0.656-1.409-1.444c0.01-0.756,0.607-1.373,1.362-1.407h0.052
	c0.527,0,1.009,0.295,1.25,0.764h0.408C16.178,7.099,19.031,8.345,20.963,10.611z M8.033,14.205
	c-0.027-0.26,0.036-0.521,0.178-0.739c-1.425-2.469-2.188-5.599-1.017-8.856c0.839-2.448,2.952-4.103,5.242-4.103
	c2.444,0,4.989,2.139,5.293,6.261c-0.381-0.126-0.938-0.313-1.271-0.381c-0.083-1.348-1.222-4.708-3.92-4.658
	c-0.967,0.027-2.392,0.484-3.125,1.425C8.506,4.276,7.979,5.657,7.906,7.099c-0.172,1.976,0.292,3.956,1.323,5.649
	c0.057-0.021,0.118-0.029,0.178-0.024h0.05c0.787-0.015,1.437,0.612,1.451,1.399s-0.612,1.436-1.399,1.45H9.458
	C8.692,15.57,8.064,14.965,8.033,14.2V14.205z"/>
<rect x="24.347" y="4.313" fill="none" width="51.063" height="11.375"/>
<text transform="matrix(1 0 0 1 27.3262 15.6719)" fill="#764ABC" font-family="'Myriad-Bold'" font-size="16">Redux</text>
</svg>
